<svg xmlns="http://www.w3.org/2000/svg" width="288" height="288" fill="none"><rect width="288" height="288" fill="#3685FF" rx="10"/><mask id="a" width="288" height="288" x="0" y="0" maskUnits="userSpaceOnUse" style="mask-type:luminance"><rect width="288" height="288" fill="#fff" rx="10"/></mask><g fill="#2C7DFA" mask="url(#a)"><circle cx="266.5" cy="339.5" r="135"/><circle cx="32.5" cy="-.5" r="164"/></g><path fill="#fff" d="M119.172 64h5.517v5.517h-5.517zM146.759 64h5.517v5.517h-5.517zM152.276 64h5.517v5.517h-5.517zM163.31 64h5.517v5.517h-5.517zM108.138 69.517h5.517v5.517h-5.517zM113.655 69.517h5.517v5.517h-5.517zM124.69 69.517h5.517v5.517h-5.517zM130.207 69.517h5.517v5.517h-5.517zM135.724 69.517h5.517v5.517h-5.517zM141.241 69.517h5.517v5.517h-5.517zM152.276 69.517h5.517v5.517h-5.517zM157.793 69.517h5.517v5.517h-5.517zM174.345 69.517h5.517v5.517h-5.517zM108.138 75.034h5.517v5.517h-5.517zM113.655 75.034h5.517v5.517h-5.517zM119.172 75.034h5.517v5.517h-5.517zM130.207 75.034h5.517v5.517h-5.517zM135.724 75.034h5.517v5.517h-5.517zM146.759 75.034h5.517v5.517h-5.517zM163.31 75.034h5.517v5.517h-5.517zM174.345 75.034h5.517v5.517h-5.517zM108.138 80.552h5.517v5.517h-5.517zM113.655 80.552h5.517v5.517h-5.517zM124.69 80.552h5.517v5.517h-5.517zM152.276 80.552h5.517v5.517h-5.517zM157.793 80.552h5.517v5.517h-5.517zM174.345 80.552h5.517v5.517h-5.517zM113.655 86.069h5.517v5.517h-5.517zM146.759 86.069h5.517v5.517h-5.517zM152.276 86.069h5.517v5.517h-5.517zM168.828 86.069h5.517v5.517h-5.517zM174.345 86.069h5.517v5.517h-5.517zM113.655 91.586h5.517v5.517h-5.517zM130.207 91.586h5.517v5.517h-5.517zM146.759 91.586h5.517v5.517h-5.517zM174.345 91.586h5.517v5.517h-5.517zM108.138 97.103h5.517v5.517h-5.517zM119.172 97.103h5.517v5.517h-5.517zM130.207 97.103h5.517v5.517h-5.517zM141.241 97.103h5.517v5.517h-5.517zM152.276 97.103h5.517v5.517h-5.517zM163.31 97.103h5.517v5.517h-5.517zM174.345 97.103h5.517v5.517h-5.517zM108.138 102.621h5.517v5.517h-5.517zM124.69 102.621h5.517v5.517h-5.517zM141.241 102.621h5.517v5.517h-5.517zM146.759 102.621h5.517v5.517h-5.517zM152.276 102.621h5.517v5.517h-5.517zM163.31 102.621h5.517v5.517h-5.517zM174.345 102.621h5.517v5.517h-5.517zM64 108.138h5.517v5.517H64zM97.103 108.138h5.517v5.517h-5.517zM108.138 108.138h5.517v5.517h-5.517zM119.172 108.138h5.517v5.517h-5.517zM152.276 108.138h5.517v5.517h-5.517zM157.793 108.138h5.517v5.517h-5.517zM168.828 108.138h5.517v5.517h-5.517zM179.862 108.138h5.517v5.517h-5.517zM185.379 108.138h5.517v5.517h-5.517zM201.931 108.138h5.517v5.517h-5.517zM207.448 108.138h5.517v5.517h-5.517zM212.966 108.138h5.517v5.517h-5.517zM64 113.655h5.517v5.517H64zM75.034 113.655h5.517v5.517h-5.517zM91.586 113.655h5.517v5.517h-5.517zM135.724 113.655h5.517v5.517h-5.517zM152.276 113.655h5.517v5.517h-5.517zM157.793 113.655h5.517v5.517h-5.517zM163.31 113.655h5.517v5.517h-5.517zM168.828 113.655h5.517v5.517h-5.517zM190.897 113.655h5.517v5.517h-5.517zM196.414 113.655h5.517v5.517h-5.517zM207.448 113.655h5.517v5.517h-5.517zM212.966 113.655h5.517v5.517h-5.517zM69.517 119.172h5.517v5.517h-5.517zM75.034 119.172h5.517v5.517h-5.517zM80.552 119.172h5.517v5.517h-5.517zM86.069 119.172h5.517v5.517h-5.517zM97.103 119.172h5.517v5.517h-5.517zM102.621 119.172h5.517v5.517h-5.517zM108.138 119.172h5.517v5.517h-5.517zM113.655 119.172h5.517v5.517h-5.517zM130.207 119.172h5.517v5.517h-5.517zM135.724 119.172h5.517v5.517h-5.517zM141.241 119.172h5.517v5.517h-5.517zM146.759 119.172h5.517v5.517h-5.517zM152.276 119.172h5.517v5.517h-5.517zM157.793 119.172h5.517v5.517h-5.517zM64 124.69h5.517v5.517H64zM75.034 124.69h5.517v5.517h-5.517zM91.586 124.69h5.517v5.517h-5.517zM102.621 124.69h5.517v5.517h-5.517zM108.138 124.69h5.517v5.517h-5.517zM113.655 124.69h5.517v5.517h-5.517zM119.172 124.69h5.517v5.517h-5.517zM130.207 124.69h5.517v5.517h-5.517zM135.724 124.69h5.517v5.517h-5.517zM174.345 124.69h5.517v5.517h-5.517zM185.379 124.69h5.517v5.517h-5.517zM190.897 124.69h5.517v5.517h-5.517zM201.931 124.69h5.517v5.517h-5.517zM69.517 130.207h5.517v5.517h-5.517zM91.586 130.207h5.517v5.517h-5.517zM97.103 130.207h5.517v5.517h-5.517zM108.138 130.207h5.517v5.517h-5.517zM119.172 130.207h5.517v5.517h-5.517zM135.724 130.207h5.517v5.517h-5.517zM146.759 130.207h5.517v5.517h-5.517zM152.276 130.207h5.517v5.517h-5.517zM168.828 130.207h5.517v5.517h-5.517zM174.345 130.207h5.517v5.517h-5.517zM185.379 130.207h5.517v5.517h-5.517zM190.897 130.207h5.517v5.517h-5.517zM218.483 130.207H224v5.517h-5.517zM75.034 135.724h5.517v5.517h-5.517zM86.069 135.724h5.517v5.517h-5.517zM102.621 135.724h5.517v5.517h-5.517zM113.655 135.724h5.517v5.517h-5.517zM119.172 135.724h5.517v5.517h-5.517zM152.276 135.724h5.517v5.517h-5.517zM168.828 135.724h5.517v5.517h-5.517zM174.345 135.724h5.517v5.517h-5.517zM179.862 135.724h5.517v5.517h-5.517zM185.379 135.724h5.517v5.517h-5.517zM196.414 135.724h5.517v5.517h-5.517zM212.966 135.724h5.517v5.517h-5.517zM218.483 135.724H224v5.517h-5.517zM64 141.241h5.517v5.517H64zM69.517 141.241h5.517v5.517h-5.517zM86.069 141.241h5.517v5.517h-5.517zM97.103 141.241h5.517v5.517h-5.517zM108.138 141.241h5.517v5.517h-5.517zM113.655 141.241h5.517v5.517h-5.517zM157.793 141.241h5.517v5.517h-5.517zM163.31 141.241h5.517v5.517h-5.517zM179.862 141.241h5.517v5.517h-5.517zM190.897 141.241h5.517v5.517h-5.517zM201.931 141.241h5.517v5.517h-5.517zM207.448 141.241h5.517v5.517h-5.517zM108.138 146.759h5.517v5.517h-5.517zM113.655 146.759h5.517v5.517h-5.517zM119.172 146.759h5.517v5.517h-5.517zM146.759 146.759h5.517v5.517h-5.517zM163.31 146.759h5.517v5.517h-5.517zM168.828 146.759h5.517v5.517h-5.517zM190.897 146.759h5.517v5.517h-5.517zM196.414 146.759h5.517v5.517h-5.517zM207.448 146.759h5.517v5.517h-5.517zM218.483 146.759H224v5.517h-5.517zM64 152.276h5.517v5.517H64zM86.069 152.276h5.517v5.517h-5.517zM91.586 152.276h5.517v5.517h-5.517zM97.103 152.276h5.517v5.517h-5.517zM124.69 152.276h5.517v5.517h-5.517zM152.276 152.276h5.517v5.517h-5.517zM157.793 152.276h5.517v5.517h-5.517zM163.31 152.276h5.517v5.517h-5.517zM168.828 152.276h5.517v5.517h-5.517zM190.897 152.276h5.517v5.517h-5.517zM201.931 152.276h5.517v5.517h-5.517zM207.448 152.276h5.517v5.517h-5.517zM64 157.793h5.517v5.517H64zM102.621 157.793h5.517v5.517h-5.517zM108.138 157.793h5.517v5.517h-5.517zM113.655 157.793h5.517v5.517h-5.517zM124.69 157.793h5.517v5.517h-5.517zM135.724 157.793h5.517v5.517h-5.517zM141.241 157.793h5.517v5.517h-5.517zM157.793 157.793h5.517v5.517h-5.517zM163.31 157.793h5.517v5.517h-5.517zM168.828 157.793h5.517v5.517h-5.517zM174.345 157.793h5.517v5.517h-5.517zM185.379 157.793h5.517v5.517h-5.517zM190.897 157.793h5.517v5.517h-5.517zM196.414 157.793h5.517v5.517h-5.517zM207.448 157.793h5.517v5.517h-5.517zM212.966 157.793h5.517v5.517h-5.517zM218.483 157.793H224v5.517h-5.517zM64 163.31h5.517v5.517H64zM69.517 163.31h5.517v5.517h-5.517zM80.552 163.31h5.517v5.517h-5.517zM86.069 163.31h5.517v5.517h-5.517zM91.586 163.31h5.517v5.517h-5.517zM97.103 163.31h5.517v5.517h-5.517zM108.138 163.31h5.517v5.517h-5.517zM113.655 163.31h5.517v5.517h-5.517zM124.69 163.31h5.517v5.517h-5.517zM146.759 163.31h5.517v5.517h-5.517zM168.828 163.31h5.517v5.517h-5.517zM201.931 163.31h5.517v5.517h-5.517zM218.483 163.31H224v5.517h-5.517zM64 168.828h5.517v5.517H64zM75.034 168.828h5.517v5.517h-5.517zM80.552 168.828h5.517v5.517h-5.517zM91.586 168.828h5.517v5.517h-5.517zM113.655 168.828h5.517v5.517h-5.517zM119.172 168.828h5.517v5.517h-5.517zM130.207 168.828h5.517v5.517h-5.517zM135.724 168.828h5.517v5.517h-5.517zM163.31 168.828h5.517v5.517h-5.517zM174.345 168.828h5.517v5.517h-5.517zM179.862 168.828h5.517v5.517h-5.517zM185.379 168.828h5.517v5.517h-5.517zM190.897 168.828h5.517v5.517h-5.517zM196.414 168.828h5.517v5.517h-5.517zM64 174.345h5.517v5.517H64zM86.069 174.345h5.517v5.517h-5.517zM97.103 174.345h5.517v5.517h-5.517zM102.621 174.345h5.517v5.517h-5.517zM113.655 174.345h5.517v5.517h-5.517zM124.69 174.345h5.517v5.517h-5.517zM141.241 174.345h5.517v5.517h-5.517zM146.759 174.345h5.517v5.517h-5.517zM157.793 174.345h5.517v5.517h-5.517zM174.345 174.345h5.517v5.517h-5.517zM179.862 174.345h5.517v5.517h-5.517zM185.379 174.345h5.517v5.517h-5.517zM190.897 174.345h5.517v5.517h-5.517zM196.414 174.345h5.517v5.517h-5.517zM207.448 174.345h5.517v5.517h-5.517zM212.966 174.345h5.517v5.517h-5.517zM218.483 174.345H224v5.517h-5.517zM108.138 179.862h5.517v5.517h-5.517zM113.655 179.862h5.517v5.517h-5.517zM119.172 179.862h5.517v5.517h-5.517zM141.241 179.862h5.517v5.517h-5.517zM157.793 179.862h5.517v5.517h-5.517zM163.31 179.862h5.517v5.517h-5.517zM174.345 179.862h5.517v5.517h-5.517zM196.414 179.862h5.517v5.517h-5.517zM201.931 179.862h5.517v5.517h-5.517zM130.207 185.379h5.517v5.517h-5.517zM163.31 185.379h5.517v5.517h-5.517zM168.828 185.379h5.517v5.517h-5.517zM174.345 185.379h5.517v5.517h-5.517zM185.379 185.379h5.517v5.517h-5.517zM196.414 185.379h5.517v5.517h-5.517zM201.931 185.379h5.517v5.517h-5.517zM207.448 185.379h5.517v5.517h-5.517zM119.172 190.897h5.517v5.517h-5.517zM124.69 190.897h5.517v5.517h-5.517zM141.241 190.897h5.517v5.517h-5.517zM146.759 190.897h5.517v5.517h-5.517zM152.276 190.897h5.517v5.517h-5.517zM168.828 190.897h5.517v5.517h-5.517zM174.345 190.897h5.517v5.517h-5.517zM196.414 190.897h5.517v5.517h-5.517zM218.483 190.897H224v5.517h-5.517zM130.207 196.414h5.517v5.517h-5.517zM135.724 196.414h5.517v5.517h-5.517zM141.241 196.414h5.517v5.517h-5.517zM152.276 196.414h5.517v5.517h-5.517zM168.828 196.414h5.517v5.517h-5.517zM174.345 196.414h5.517v5.517h-5.517zM179.862 196.414h5.517v5.517h-5.517zM185.379 196.414h5.517v5.517h-5.517zM190.897 196.414h5.517v5.517h-5.517zM196.414 196.414h5.517v5.517h-5.517zM201.931 196.414h5.517v5.517h-5.517zM113.655 201.931h5.517v5.517h-5.517zM119.172 201.931h5.517v5.517h-5.517zM124.69 201.931h5.517v5.517h-5.517zM135.724 201.931h5.517v5.517h-5.517zM141.241 201.931h5.517v5.517h-5.517zM157.793 201.931h5.517v5.517h-5.517zM163.31 201.931h5.517v5.517h-5.517zM179.862 201.931h5.517v5.517h-5.517zM190.897 201.931h5.517v5.517h-5.517zM201.931 201.931h5.517v5.517h-5.517zM207.448 201.931h5.517v5.517h-5.517zM212.966 201.931h5.517v5.517h-5.517zM113.655 207.448h5.517v5.517h-5.517zM119.172 207.448h5.517v5.517h-5.517zM146.759 207.448h5.517v5.517h-5.517zM152.276 207.448h5.517v5.517h-5.517zM157.793 207.448h5.517v5.517h-5.517zM168.828 207.448h5.517v5.517h-5.517zM179.862 207.448h5.517v5.517h-5.517zM185.379 207.448h5.517v5.517h-5.517zM190.897 207.448h5.517v5.517h-5.517zM196.414 207.448h5.517v5.517h-5.517zM201.931 207.448h5.517v5.517h-5.517zM207.448 207.448h5.517v5.517h-5.517zM212.966 207.448h5.517v5.517h-5.517zM130.207 212.966h5.517v5.517h-5.517zM146.759 212.966h5.517v5.517h-5.517zM168.828 212.966h5.517v5.517h-5.517zM179.862 212.966h5.517v5.517h-5.517zM190.897 212.966h5.517v5.517h-5.517zM201.931 212.966h5.517v5.517h-5.517zM207.448 212.966h5.517v5.517h-5.517zM218.483 212.966H224v5.517h-5.517zM108.138 218.483h5.517V224h-5.517zM113.655 218.483h5.517V224h-5.517zM124.69 218.483h5.517V224h-5.517zM135.724 218.483h5.517V224h-5.517zM141.241 218.483h5.517V224h-5.517zM157.793 218.483h5.517V224h-5.517zM163.31 218.483h5.517V224h-5.517zM168.828 218.483h5.517V224h-5.517zM179.862 218.483h5.517V224h-5.517zM185.379 218.483h5.517V224h-5.517zM190.897 218.483h5.517V224h-5.517zM196.414 218.483h5.517V224h-5.517zM201.931 218.483h5.517V224h-5.517zM207.448 218.483h5.517V224h-5.517z"/><path fill="#fff" fill-rule="evenodd" d="M69.793 64h32.828v38.621H64V64h5.793Zm0 32.828h27.035V69.793H69.793v27.035ZM191.172 64H224v38.621h-38.621V64h5.793Zm0 32.828h27.035V69.793h-27.035v27.035ZM69.793 185.379h32.828V224H64v-38.621h5.793Zm0 32.828h27.035v-27.035H69.793v27.035Z" clip-rule="evenodd"/><path fill="#fff" d="M75.034 75.034h16.552v16.552H75.034zM196.414 75.034h16.552v16.552h-16.552zM75.034 196.414h16.552v16.552H75.034z"/></svg>